<svg xmlns="http://www.w3.org/2000/svg" viewBox="0 0 48 48" fill="none">
  <defs>
    <linearGradient id="wing" x1="0" y1="0" x2="48" y2="48" gradientUnits="userSpaceOnUse">
      <stop offset="0" stop-color="#ff8fb1"/>
      <stop offset="1" stop-color="#b9a3ff"/>
    </linearGradient>
    <linearGradient id="bloom" x1="0" y1="0" x2="0" y2="48" gradientUnits="userSpaceOnUse">
      <stop offset="0" stop-color="#ffe9d6"/>
      <stop offset="1" stop-color="#f472b6"/>
    </linearGradient>
  </defs>

  <path fill="url(#wing)" d="M24 14c-1.5-5-7-9-13-8-4 .7-6.5 4-6 8.2.5 4.4 4.6 7.8 11 8.6 3.4.4 6.4-1 8-3.8.6-1 1-2.2 0-5z"/>
  <path fill="url(#wing)" d="M24 14c1.5-5 7-9 13-8 4 .7 6.5 4 6 8.2-.5 4.4-4.6 7.8-11 8.6-3.4.4-6.4-1-8-3.8-.6-1-1-2.2 0-5z"/>
  <path fill="url(#wing)" opacity="0.85" d="M24 22c-1.1-3.6-5-6.4-9-5.8-2.8.5-4.6 2.9-4.2 5.9.4 3.1 3.3 5.5 7.7 6 2.4.3 4.5-.7 5.6-2.7.4-.7.7-1.6-.1-3.4z"/>
  <path fill="url(#wing)" opacity="0.85" d="M24 22c1.1-3.6 5-6.4 9-5.8 2.8.5 4.6 2.9 4.2 5.9-.4 3.1-3.3 5.5-7.7 6-2.4.3-4.5-.7-5.6-2.7-.4-.7-.7-1.6.1-3.4z"/>
  <rect x="22.6" y="12" width="2.8" height="22" rx="1.4" fill="#fff" opacity="0.9"/>

  <g transform="translate(24 38)">
    <circle r="3" fill="url(#bloom)"/>
    <g fill="url(#bloom)">
      <ellipse rx="3.6" ry="2.2" cx="0" cy="-4.2"/>
      <ellipse rx="3.6" ry="2.2" cx="0" cy="-4.2" transform="rotate(72)"/>
      <ellipse rx="3.6" ry="2.2" cx="0" cy="-4.2" transform="rotate(144)"/>
      <ellipse rx="3.6" ry="2.2" cx="0" cy="-4.2" transform="rotate(216)"/>
      <ellipse rx="3.6" ry="2.2" cx="0" cy="-4.2" transform="rotate(288)"/>
    </g>
    <circle r="1.6" fill="#fff" opacity="0.9"/>
  </g>
</svg>
